<svg width="135" height="17" xmlns="http://www.w3.org/2000/svg"><g fill="none" fill-rule="evenodd"><path d="M3.976 2.976h1.792L9.534 13H7.798l-.896-2.562H2.856L1.946 13H.21L3.976 2.976zM6.37 8.982L5.306 6l-.392-1.162H4.83L4.438 6 3.374 8.982H6.37zm7.514 4.242c-.71 0-1.346-.163-1.911-.49a3.424 3.424 0 0 1-1.316-1.351c-.313-.574-.469-1.225-.469-1.953s.156-1.379.469-1.953a3.424 3.424 0 0 1 1.316-1.351c.565-.327 1.202-.49 1.911-.49.784 0 1.451.177 2.002.532.55.355.943.835 1.176 1.442l-1.414.588c-.317-.756-.92-1.134-1.806-1.134-.383 0-.735.098-1.057.294a2.112 2.112 0 0 0-.77.833c-.191.36-.287.772-.287 1.239 0 .467.096.882.287 1.246a2.1 2.1 0 0 0 .77.84c.322.196.674.294 1.057.294.448 0 .833-.1 1.155-.301.322-.2.567-.488.735-.861l1.386.602a3.255 3.255 0 0 1-1.232 1.442c-.55.355-1.218.532-2.002.532zm4.7-10.248h1.54v2.73l-.07 1.092h.07c.205-.336.511-.614.917-.833.406-.22.842-.329 1.309-.329.868 0 1.53.254 1.988.763.457.509.686 1.202.686 2.079V13h-1.54V8.688c0-.541-.142-.947-.427-1.218-.285-.27-.656-.406-1.113-.406-.345 0-.656.098-.931.294a2.042 2.042 0 0 0-.651.777 2.297 2.297 0 0 0-.238 1.029V13h-1.54V2.976zm11.602 10.248c-.7 0-1.328-.163-1.883-.49a3.453 3.453 0 0 1-1.302-1.351c-.313-.574-.469-1.22-.469-1.939 0-.681.152-1.314.455-1.897a3.578 3.578 0 0 1 1.267-1.393c.541-.345 1.157-.518 1.848-.518.719 0 1.342.159 1.869.476.527.317.929.751 1.204 1.302.275.55.413 1.171.413 1.862 0 .13-.014.294-.042.49h-5.474c.056.663.292 1.174.707 1.533.415.36.898.539 1.449.539.439 0 .819-.1 1.141-.301.322-.2.581-.474.777-.819l1.302.616a3.836 3.836 0 0 1-1.316 1.386c-.541.336-1.19.504-1.946.504zM32.02 8.59a1.78 1.78 0 0 0-.238-.749 1.703 1.703 0 0 0-.637-.623c-.285-.168-.632-.252-1.043-.252-.495 0-.912.147-1.253.441-.34.294-.576.688-.707 1.183h3.878zm5.834 4.522c-.317 0-.616-.051-.896-.154a1.967 1.967 0 0 1-.686-.406c-.401-.401-.602-.947-.602-1.638V7.218h-1.246V5.86h1.246V3.844h1.54V5.86h1.736v1.358H37.21v3.36c0 .383.075.653.224.812.14.187.383.28.728.28.159 0 .299-.021.42-.063.121-.042.252-.11.392-.203v1.498c-.308.14-.681.21-1.12.21zm5.694.112c-.7 0-1.328-.163-1.883-.49a3.453 3.453 0 0 1-1.302-1.351c-.313-.574-.469-1.22-.469-1.939 0-.681.152-1.314.455-1.897a3.578 3.578 0 0 1 1.267-1.393c.541-.345 1.157-.518 1.848-.518.719 0 1.342.159 1.869.476.527.317.929.751 1.204 1.302.275.55.413 1.171.413 1.862 0 .13-.014.294-.042.49h-5.474c.056.663.292 1.174.707 1.533.415.36.898.539 1.449.539.439 0 .819-.1 1.141-.301.322-.2.581-.474.777-.819l1.302.616a3.836 3.836 0 0 1-1.316 1.386c-.541.336-1.19.504-1.946.504zm1.834-4.634a1.78 1.78 0 0 0-.238-.749 1.703 1.703 0 0 0-.637-.623c-.285-.168-.632-.252-1.043-.252-.495 0-.912.147-1.253.441-.34.294-.576.688-.707 1.183h3.878zM48.5 5.86h1.47v1.05h.07c.159-.364.434-.665.826-.903a2.362 2.362 0 0 1 1.246-.357c.345 0 .635.047.868.14v1.596c-.41-.15-.78-.224-1.106-.224-.355 0-.67.093-.945.28a1.955 1.955 0 0 0-.651.749 2.24 2.24 0 0 0-.238 1.029V13H48.5V5.86zm11.472 7.364c-.513 0-.97-.1-1.372-.301a2.247 2.247 0 0 1-.938-.854 2.365 2.365 0 0 1-.336-1.253c0-.737.278-1.32.833-1.75.555-.43 1.258-.644 2.107-.644.42 0 .798.04 1.134.119.336.08.602.166.798.259v-.364c0-.439-.163-.796-.49-1.071-.327-.275-.747-.413-1.26-.413-.364 0-.707.08-1.029.238a2.018 2.018 0 0 0-.777.658l-1.078-.826c.317-.439.728-.78 1.232-1.022a3.822 3.822 0 0 1 1.68-.364c1.036 0 1.834.254 2.394.763s.84 1.225.84 2.149V13h-1.512v-.854h-.07a2.416 2.416 0 0 1-.868.77 2.629 2.629 0 0 1-1.288.308zm.266-1.274c.373 0 .71-.089 1.008-.266a1.938 1.938 0 0 0 .952-1.68 3.134 3.134 0 0 0-.749-.294 3.49 3.49 0 0 0-.889-.112c-.579 0-1.003.114-1.274.343a1.11 1.11 0 0 0-.406.889c0 .327.126.595.378.805.252.21.579.315.98.315zm4.364-6.09h1.722l1.974 5.152h.056L70.37 5.86h1.68L69.082 13h-1.54l-2.94-7.14zm11.644 7.364c-.7 0-1.328-.163-1.883-.49a3.453 3.453 0 0 1-1.302-1.351c-.313-.574-.469-1.22-.469-1.939 0-.681.152-1.314.455-1.897a3.578 3.578 0 0 1 1.267-1.393c.541-.345 1.157-.518 1.848-.518.719 0 1.342.159 1.869.476.527.317.929.751 1.204 1.302.275.55.413 1.171.413 1.862 0 .13-.014.294-.042.49h-5.474c.056.663.292 1.174.707 1.533.415.36.898.539 1.449.539.439 0 .819-.1 1.141-.301.322-.2.581-.474.777-.819l1.302.616a3.836 3.836 0 0 1-1.316 1.386c-.541.336-1.19.504-1.946.504zM78.08 8.59a1.78 1.78 0 0 0-.238-.749 1.703 1.703 0 0 0-.637-.623c-.285-.168-.632-.252-1.043-.252-.495 0-.912.147-1.253.441-.34.294-.576.688-.707 1.183h3.878zm6.492 4.634c-.71 0-1.346-.163-1.911-.49a3.424 3.424 0 0 1-1.316-1.351c-.313-.574-.469-1.225-.469-1.953s.156-1.379.469-1.953a3.424 3.424 0 0 1 1.316-1.351c.565-.327 1.202-.49 1.911-.49.784 0 1.451.177 2.002.532.55.355.943.835 1.176 1.442l-1.414.588c-.317-.756-.92-1.134-1.806-1.134-.383 0-.735.098-1.057.294a2.112 2.112 0 0 0-.77.833c-.191.36-.287.772-.287 1.239 0 .467.096.882.287 1.246a2.1 2.1 0 0 0 .77.84c.322.196.674.294 1.057.294.448 0 .833-.1 1.155-.301.322-.2.567-.488.735-.861l1.386.602a3.255 3.255 0 0 1-1.232 1.442c-.55.355-1.218.532-2.002.532zm28.954-10.589v4.083h2.518c.6 0 1.096-.202 1.488-.605.403-.402.605-.882.605-1.437 0-.544-.202-1.018-.605-1.422-.392-.413-.888-.62-1.488-.62h-2.518zm0 5.52v4.736h-1.504V1.198h3.99c1.013 0 1.873.337 2.582 1.012.72.675 1.08 1.497 1.08 2.466 0 .991-.36 1.819-1.08 2.482-.697.665-1.559.996-2.583.996h-2.485v.001zm7.668 2.287c0 .392.166.718.499.98.332.26.722.391 1.168.391.633 0 1.196-.234 1.692-.701.497-.469.744-1.019.744-1.65-.469-.37-1.123-.555-1.962-.555-.61 0-1.12.148-1.528.442-.409.294-.613.657-.613 1.093m1.946-5.815c1.112 0 1.989.297 2.633.89.642.594.964 1.408.964 2.442v4.932h-1.439v-1.11h-.065c-.622.914-1.45 1.372-2.486 1.372-.882 0-1.621-.262-2.215-.784-.594-.523-.891-1.176-.891-1.96 0-.828.313-1.486.94-1.976s1.463-.735 2.51-.735c.892 0 1.629.163 2.206.49v-.344c0-.522-.207-.966-.621-1.33a2.132 2.132 0 0 0-1.455-.547c-.84 0-1.504.353-1.995 1.062l-1.324-.834c.73-1.045 1.81-1.568 3.238-1.568m11.853.262l-5.02 11.53h-1.553l1.864-4.034-3.302-7.496h1.635l2.387 5.749h.032l2.322-5.75z" fill="#FFF"/><path d="M107.448 7.134c0-.473-.04-.93-.116-1.366h-6.344v2.588h3.634a3.11 3.11 0 0 1-1.344 2.042v1.68h2.169c1.27-1.17 2.001-2.9 2.001-4.944" fill="#4285F4"/><path d="M100.988 13.7c1.816 0 3.344-.595 4.459-1.621l-2.169-1.681c-.603.406-1.38.643-2.29.643-1.754 0-3.244-1.182-3.776-2.774h-2.234v1.731a6.728 6.728 0 0 0 6.01 3.703" fill="#34A853"/><path d="M97.212 8.267a4.034 4.034 0 0 1 0-2.572V3.964h-2.234a6.678 6.678 0 0 0-.717 3.017c0 1.085.26 2.11.717 3.017l2.234-1.731z" fill="#FABB05"/><path d="M100.988 2.921c.992 0 1.88.34 2.58 1.008v.001l1.92-1.918c-1.165-1.084-2.685-1.75-4.5-1.75a6.728 6.728 0 0 0-6.01 3.702l2.234 1.731c.532-1.592 2.022-2.774 3.776-2.774" fill="#E94235"/></g></svg>
