<svg width="135" height="17" xmlns="http://www.w3.org/2000/svg"><g fill="none" fill-rule="evenodd"><path d="M5.88 13.224c-.97 0-1.857-.229-2.66-.686a4.968 4.968 0 0 1-1.89-1.89 5.279 5.279 0 0 1-.686-2.66c0-.97.229-1.857.686-2.66a4.968 4.968 0 0 1 1.89-1.89 5.279 5.279 0 0 1 2.66-.686c.756 0 1.444.14 2.065.42.62.28 1.169.686 1.645 1.218L8.47 5.468a3.45 3.45 0 0 0-1.148-.917c-.42-.2-.9-.301-1.442-.301a3.73 3.73 0 0 0-1.841.462 3.428 3.428 0 0 0-1.323 1.309c-.327.565-.49 1.22-.49 1.967 0 .747.163 1.402.49 1.967a3.428 3.428 0 0 0 1.323 1.309 3.732 3.732 0 0 0 1.841.462c1.12 0 2.072-.467 2.856-1.4l1.134 1.092a5.105 5.105 0 0 1-1.75 1.33 5.24 5.24 0 0 1-2.24.476zm8.704 0c-.719 0-1.363-.166-1.932-.497a3.495 3.495 0 0 1-1.33-1.365 3.95 3.95 0 0 1-.476-1.932c0-.71.159-1.353.476-1.932a3.495 3.495 0 0 1 1.33-1.365c.57-.331 1.213-.497 1.932-.497.719 0 1.363.168 1.932.504.57.336 1.013.793 1.33 1.372.317.579.476 1.218.476 1.918a3.95 3.95 0 0 1-.476 1.932 3.495 3.495 0 0 1-1.33 1.365c-.57.331-1.213.497-1.932.497zm0-1.414a2.17 2.17 0 0 0 1.092-.287 2.11 2.11 0 0 0 .805-.826c.2-.36.301-.782.301-1.267 0-.485-.1-.905-.301-1.26a2.122 2.122 0 0 0-.805-.819 2.17 2.17 0 0 0-1.092-.287 2.17 2.17 0 0 0-1.092.287 2.122 2.122 0 0 0-.805.819c-.2.355-.301.775-.301 1.26s.1.908.301 1.267c.2.36.469.635.805.826.336.191.7.287 1.092.287zm5.162-5.95h1.47v.938h.07a2.41 2.41 0 0 1 .91-.84 2.583 2.583 0 0 1 1.26-.322c.513 0 .961.119 1.344.357.383.238.658.553.826.945.243-.392.567-.707.973-.945s.884-.357 1.435-.357c.821 0 1.444.25 1.869.749.425.5.637 1.178.637 2.037V13H29V8.688c0-1.083-.462-1.624-1.386-1.624-.495 0-.9.2-1.218.602-.317.401-.476.896-.476 1.484V13h-1.54V8.688c0-1.083-.476-1.624-1.428-1.624-.485 0-.884.2-1.197.602-.313.401-.469.896-.469 1.484V13h-1.54V5.86zm12.638 0h1.47v.938h.07c.205-.327.509-.602.91-.826a2.738 2.738 0 0 1 1.358-.336c.644 0 1.227.163 1.75.49.523.327.936.777 1.239 1.351.303.574.455 1.225.455 1.953s-.152 1.379-.455 1.953a3.467 3.467 0 0 1-1.239 1.351 3.235 3.235 0 0 1-1.75.49c-.504 0-.957-.112-1.358-.336-.401-.224-.705-.495-.91-.812h-.07l.07.994v2.954h-1.54V5.86zm3.584 5.95c.373 0 .723-.098 1.05-.294a2.13 2.13 0 0 0 .784-.84c.196-.364.294-.78.294-1.246 0-.467-.098-.88-.294-1.239a2.144 2.144 0 0 0-.784-.833 2.006 2.006 0 0 0-2.093 0 2.162 2.162 0 0 0-.777.833c-.196.36-.294.772-.294 1.239 0 .467.098.882.294 1.246.196.364.455.644.777.84.322.196.67.294 1.043.294zm5.148-5.95h1.47v1.05h.07c.159-.364.434-.665.826-.903a2.362 2.362 0 0 1 1.246-.357c.345 0 .635.047.868.14v1.596c-.41-.15-.78-.224-1.106-.224-.355 0-.67.093-.945.28a1.955 1.955 0 0 0-.651.749 2.24 2.24 0 0 0-.238 1.029V13h-1.54V5.86zm7.794 7.364c-.513 0-.97-.1-1.372-.301a2.247 2.247 0 0 1-.938-.854 2.365 2.365 0 0 1-.336-1.253c0-.737.278-1.32.833-1.75.555-.43 1.258-.644 2.107-.644.42 0 .798.04 1.134.119.336.08.602.166.798.259v-.364c0-.439-.163-.796-.49-1.071-.327-.275-.747-.413-1.26-.413-.364 0-.707.08-1.029.238a2.018 2.018 0 0 0-.777.658l-1.078-.826c.317-.439.728-.78 1.232-1.022a3.822 3.822 0 0 1 1.68-.364c1.036 0 1.834.254 2.394.763s.84 1.225.84 2.149V13h-1.512v-.854h-.07a2.416 2.416 0 0 1-.868.77 2.629 2.629 0 0 1-1.288.308zm.266-1.274c.373 0 .71-.089 1.008-.266a1.938 1.938 0 0 0 .952-1.68 3.134 3.134 0 0 0-.749-.294 3.49 3.49 0 0 0-.889-.112c-.579 0-1.003.114-1.274.343a1.11 1.11 0 0 0-.406.889c0 .327.126.595.378.805.252.21.579.315.98.315zm5.302-6.09h1.47v1.05h.07c.159-.364.434-.665.826-.903a2.362 2.362 0 0 1 1.246-.357c.345 0 .635.047.868.14v1.596c-.41-.15-.78-.224-1.106-.224-.355 0-.67.093-.945.28a1.955 1.955 0 0 0-.651.749 2.24 2.24 0 0 0-.238 1.029V13h-1.54V5.86zm12.536 7.364c-.71 0-1.346-.163-1.911-.49a3.424 3.424 0 0 1-1.316-1.351c-.313-.574-.469-1.225-.469-1.953s.156-1.379.469-1.953a3.424 3.424 0 0 1 1.316-1.351c.565-.327 1.202-.49 1.911-.49.784 0 1.451.177 2.002.532.55.355.943.835 1.176 1.442l-1.414.588c-.317-.756-.92-1.134-1.806-1.134-.383 0-.735.098-1.057.294a2.112 2.112 0 0 0-.77.833c-.191.36-.287.772-.287 1.239 0 .467.096.882.287 1.246a2.1 2.1 0 0 0 .77.84c.322.196.674.294 1.057.294.448 0 .833-.1 1.155-.301.322-.2.567-.488.735-.861l1.386.602a3.255 3.255 0 0 1-1.232 1.442c-.55.355-1.218.532-2.002.532zm7.976 0c-.719 0-1.363-.166-1.932-.497a3.495 3.495 0 0 1-1.33-1.365 3.95 3.95 0 0 1-.476-1.932c0-.71.159-1.353.476-1.932a3.495 3.495 0 0 1 1.33-1.365c.57-.331 1.213-.497 1.932-.497.719 0 1.363.168 1.932.504.57.336 1.013.793 1.33 1.372.317.579.476 1.218.476 1.918a3.95 3.95 0 0 1-.476 1.932 3.495 3.495 0 0 1-1.33 1.365c-.57.331-1.213.497-1.932.497zm0-1.414a2.17 2.17 0 0 0 1.092-.287 2.11 2.11 0 0 0 .805-.826c.2-.36.301-.782.301-1.267 0-.485-.1-.905-.301-1.26a2.122 2.122 0 0 0-.805-.819 2.17 2.17 0 0 0-1.092-.287 2.17 2.17 0 0 0-1.092.287 2.122 2.122 0 0 0-.805.819c-.2.355-.301.775-.301 1.26s.1.908.301 1.267c.2.36.469.635.805.826.336.191.7.287 1.092.287zm5.162-5.95h1.47v.938h.07c.205-.336.511-.614.917-.833.406-.22.838-.329 1.295-.329.868 0 1.528.254 1.981.763.453.509.679 1.202.679 2.079V13h-1.54V8.688c0-.56-.138-.97-.413-1.232-.275-.261-.656-.392-1.141-.392-.345 0-.653.096-.924.287a1.91 1.91 0 0 0-.63.763 2.37 2.37 0 0 0-.224 1.022V13h-1.54V5.86zm32.666-3.231v4.097h2.556c.61 0 1.113-.203 1.511-.607.409-.404.614-.885.614-1.442 0-.546-.205-1.022-.614-1.427-.398-.415-.902-.622-1.51-.622h-2.557zm0 5.539v4.753h-1.527V1.186h4.05c1.03 0 1.903.34 2.623 1.016.73.677 1.095 1.503 1.095 2.475 0 .994-.365 1.825-1.095 2.49-.709.668-1.583 1-2.623 1h-2.523v.001zm7.785 2.294c0 .394.168.722.506.984a1.88 1.88 0 0 0 1.187.393c.642 0 1.214-.235 1.718-.704.503-.47.755-1.022.755-1.655-.477-.372-1.14-.557-1.992-.557-.62 0-1.138.148-1.552.443-.415.295-.622.66-.622 1.096m1.975-5.834c1.13 0 2.02.298 2.674.893.652.596.978 1.413.978 2.45v4.95h-1.46v-1.115h-.067c-.63.918-1.472 1.377-2.523 1.377-.896 0-1.647-.262-2.249-.787-.603-.524-.905-1.18-.905-1.966 0-.831.318-1.491.954-1.983.637-.492 1.486-.738 2.548-.738.907 0 1.654.164 2.24.492v-.345c0-.524-.21-.97-.63-1.335a2.179 2.179 0 0 0-1.477-.55c-.853 0-1.527.356-2.025 1.067L119.29 6.2c.742-1.049 1.837-1.573 3.287-1.573m12.036.263l-5.097 11.57h-1.576l1.892-4.048-3.353-7.522h1.66l2.423 5.77h.034l2.357-5.77z" fill="#FFF"/><path d="M106.647 7.143c0-.474-.04-.932-.118-1.37h-6.44v2.596h3.689a3.12 3.12 0 0 1-1.364 2.05v1.686h2.201c1.29-1.174 2.032-2.91 2.032-4.962" fill="#4285F4"/><path d="M100.089 13.733c1.843 0 3.395-.598 4.526-1.628l-2.201-1.687c-.613.408-1.402.646-2.325.646-1.782 0-3.294-1.186-3.834-2.784h-2.268v1.738a6.839 6.839 0 0 0 6.102 3.715" fill="#34A853"/><path d="M96.255 8.28a4.005 4.005 0 0 1 0-2.58V3.961h-2.268a6.638 6.638 0 0 0-.728 3.028 6.64 6.64 0 0 0 .728 3.028l2.268-1.738z" fill="#FABB05"/><path d="M100.089 2.916c1.006 0 1.908.342 2.62 1.011v.001l1.949-1.924C103.474.916 101.93.247 100.088.247a6.839 6.839 0 0 0-6.101 3.715L96.255 5.7c.54-1.597 2.052-2.783 3.834-2.783" fill="#E94235"/></g></svg>
